<svg width="512" height="512" viewBox="0 0 512 512" fill="none" xmlns="http://www.w3.org/2000/svg">
<g id="solar-system 1" clip-path="url(#clip0)">
<g id="orbits">
<path id="orbit1" d="M256 426.667C350.106 426.667 426.667 350.106 426.667 256C426.667 161.894 350.106 85.3333 256 85.3333C225.34 85.3333 195.106 93.7301 168.567 109.619C164.523 112.043 163.209 117.274 165.632 121.327C168.055 125.372 173.295 126.686 177.34 124.262C201.225 109.961 228.429 102.4 256 102.4C340.693 102.4 409.6 171.307 409.6 256C409.6 340.693 340.693 409.6 256 409.6C171.307 409.6 102.4 340.693 102.4 256C102.4 224.265 112.102 193.732 130.458 167.689C133.171 163.84 132.25 158.515 128.401 155.793C124.535 153.079 119.219 154.001 116.506 157.85C96.1109 186.786 85.3333 220.723 85.3333 256C85.3333 350.106 161.894 426.667 256 426.667Z" fill="#E6E6E6"/>
<path id="orbit2B" d="M466.876 110.908C464.196 107.017 458.871 106.044 455.006 108.723C451.123 111.394 450.15 116.71 452.821 120.593C480.375 160.546 494.933 207.369 494.933 256C494.933 387.746 387.746 494.933 256 494.933C201.395 494.933 149.965 476.945 107.255 442.914C103.578 439.987 98.2101 440.585 95.2661 444.271C92.3307 447.957 92.9365 453.325 96.6229 456.26C142.379 492.723 197.495 512 256 512C397.158 512 512 397.158 512 256C512 203.895 496.393 153.719 466.876 110.908Z" fill="#E6E6E6"/>
<path id="orbit2A" d="M17.0667 256C17.0667 124.254 124.254 17.0667 256 17.0667C300.51 17.0667 343.97 29.4229 381.679 52.8043C385.673 55.2789 390.938 54.0501 393.429 50.048C395.913 46.0459 394.675 40.7808 390.673 38.2976C350.251 13.2437 303.684 0 256 0C114.842 0 0 114.842 0 256C0 309.999 16.6741 361.685 48.2219 405.47C49.8944 407.782 52.5056 409.02 55.1595 409.02C56.8832 409.02 58.6325 408.499 60.1344 407.415C63.9573 404.659 64.8277 399.326 62.0715 395.503C32.6315 354.637 17.0667 306.398 17.0667 256Z" fill="#E6E6E6"/>
</g>
<g id="celestial-bodies">
<path id="sun" d="M256 332.8C298.415 332.8 332.8 298.415 332.8 256C332.8 213.585 298.415 179.2 256 179.2C213.585 179.2 179.2 213.585 179.2 256C179.2 298.415 213.585 332.8 256 332.8Z" fill="#F0C419"/>
<path id="planet2" d="M426.667 128C454.944 128 477.867 105.077 477.867 76.8C477.867 48.523 454.944 25.6 426.667 25.6C398.39 25.6 375.467 48.523 375.467 76.8C375.467 105.077 398.39 128 426.667 128Z" fill="#4482C3"/>
<path id="planet1" d="M145.067 170.667C163.918 170.667 179.2 155.385 179.2 136.533C179.2 117.682 163.918 102.4 145.067 102.4C126.215 102.4 110.933 117.682 110.933 136.533C110.933 155.385 126.215 170.667 145.067 170.667Z" fill="#F0785A"/>
<path id="planet3" d="M76.8 460.8C95.6513 460.8 110.933 445.518 110.933 426.667C110.933 407.815 95.6513 392.533 76.8 392.533C57.9487 392.533 42.6667 407.815 42.6667 426.667C42.6667 445.518 57.9487 460.8 76.8 460.8Z" fill="#AF8066"/>
</g>
<g id="meteroids">
<path id="Vector" d="M469.333 486.4C474.046 486.4 477.867 482.58 477.867 477.867C477.867 473.154 474.046 469.333 469.333 469.333C464.621 469.333 460.8 473.154 460.8 477.867C460.8 482.58 464.621 486.4 469.333 486.4Z" fill="#F3D55B"/>
<path id="Vector_2" d="M494.933 435.2C499.646 435.2 503.467 431.38 503.467 426.667C503.467 421.954 499.646 418.133 494.933 418.133C490.221 418.133 486.4 421.954 486.4 426.667C486.4 431.38 490.221 435.2 494.933 435.2Z" fill="#F3D55B"/>
<path id="Vector_3" d="M42.6666 85.3333C47.3795 85.3333 51.2 81.5128 51.2 76.8C51.2 72.0872 47.3795 68.2667 42.6666 68.2667C37.9538 68.2667 34.1333 72.0872 34.1333 76.8C34.1333 81.5128 37.9538 85.3333 42.6666 85.3333Z" fill="#F3D55B"/>
<path id="Vector_4" d="M34.1333 25.6C38.8462 25.6 42.6667 21.7795 42.6667 17.0667C42.6667 12.3538 38.8462 8.53333 34.1333 8.53333C29.4205 8.53333 25.6 12.3538 25.6 17.0667C25.6 21.7795 29.4205 25.6 34.1333 25.6Z" fill="#F3D55B"/>
<path id="Vector_5" d="M102.4 25.6C107.113 25.6 110.933 21.7795 110.933 17.0667C110.933 12.3538 107.113 8.53333 102.4 8.53333C97.6872 8.53333 93.8667 12.3538 93.8667 17.0667C93.8667 21.7795 97.6872 25.6 102.4 25.6Z" fill="#F3D55B"/>
<path id="Vector_6" d="M17.0667 494.933C21.7795 494.933 25.6 491.113 25.6 486.4C25.6 481.687 21.7795 477.867 17.0667 477.867C12.3538 477.867 8.53333 481.687 8.53333 486.4C8.53333 491.113 12.3538 494.933 17.0667 494.933Z" fill="#F3D55B"/>
<path id="Vector_7" d="M384 17.0667C388.713 17.0667 392.533 13.2461 392.533 8.53332C392.533 3.82049 388.713 -1.52588e-05 384 -1.52588e-05C379.287 -1.52588e-05 375.467 3.82049 375.467 8.53332C375.467 13.2461 379.287 17.0667 384 17.0667Z" fill="#F3D55B"/>
<path id="Vector_8" d="M273.067 59.7333C277.779 59.7333 281.6 55.9128 281.6 51.2C281.6 46.4872 277.779 42.6667 273.067 42.6667C268.354 42.6667 264.533 46.4872 264.533 51.2C264.533 55.9128 268.354 59.7333 273.067 59.7333Z" fill="#F3D55B"/>
<path id="Vector_9" d="M452.267 358.4C456.98 358.4 460.8 354.58 460.8 349.867C460.8 345.154 456.98 341.333 452.267 341.333C447.554 341.333 443.733 345.154 443.733 349.867C443.733 354.58 447.554 358.4 452.267 358.4Z" fill="#F3D55B"/>
<path id="Vector_10" d="M51.2 256C55.9128 256 59.7333 252.179 59.7333 247.467C59.7333 242.754 55.9128 238.933 51.2 238.933C46.4872 238.933 42.6667 242.754 42.6667 247.467C42.6667 252.179 46.4872 256 51.2 256Z" fill="#F3D55B"/>
</g>
</g>
<defs>
<clipPath id="clip0">
<rect width="512" height="512" fill="white"/>
</clipPath>
</defs>
</svg>
